HIERARCHY
ROOT Hips
{
	OFFSET 0.000000 71.427986 0.000000
	CHANNELS 6 Xposition Yposition Zposition Xrotation Yrotation Zrotation
	JOINT Pelvis
	{
		OFFSET 0.000000 0.000000 0.000000
		CHANNELS 3 Xrotation Yrotation Zrotation
		JOINT LeftUpLeg
		{
			OFFSET 6.797100 -2.508499 -1.318700
			CHANNELS 3 Xrotation Yrotation Zrotation
			JOINT LeftLeg
			{
				OFFSET 0.069008 -29.241863 0.690200
				CHANNELS 3 Xrotation Yrotation Zrotation
				JOINT LeftFoot
				{
					OFFSET -0.069008 -29.568123 -0.266800
					CHANNELS 3 Xrotation Yrotation Zrotation
					JOINT LeftToeBase
					{
						OFFSET 3.145500 -8.631000 16.059900
						CHANNELS 3 Xrotation Yrotation Zrotation
						End Site
						{
							OFFSET 0.000000 18.501587 0.000000
						}
					}
				}
			}
			JOINT Left_ShortSleeve
			{
				OFFSET 0.265923 -10.480953 1.153800
				CHANNELS 3 Xrotation Yrotation Zrotation
				End Site
				{
					OFFSET 1.725763 19.823879 0.000000
				}
			}
		}
		JOINT RightUpLeg
		{
			OFFSET -6.797100 -2.508499 -1.318700
			CHANNELS 3 Xrotation Yrotation Zrotation
			JOINT RightLeg
			{
				OFFSET -0.082453 -29.241932 0.688000
				CHANNELS 3 Xrotation Yrotation Zrotation
				JOINT RightFoot
				{
					OFFSET 0.082453 -29.568058 -0.264600
					CHANNELS 3 Xrotation Yrotation Zrotation
					JOINT RightToeBase
					{
						OFFSET -3.115300 -8.682800 16.113400
						CHANNELS 3 Xrotation Yrotation Zrotation
						End Site
						{
							OFFSET 0.000000 18.567114 0.000000
						}
					}
				}
			}
			JOINT Right_ShortSleeve
			{
				OFFSET -0.265923 -10.480953 1.153800
				CHANNELS 3 Xrotation Yrotation Zrotation
				End Site
				{
					OFFSET -1.725766 19.823910 0.000000
				}
			}
		}
	}
	JOINT Spine
	{
		OFFSET 0.000000 13.368103 0.470500
		CHANNELS 3 Xrotation Yrotation Zrotation
		JOINT Spine1
		{
			OFFSET 0.147000 13.837402 0.538800
			CHANNELS 3 Xrotation Yrotation Zrotation
			JOINT Spine2
			{
				OFFSET 0.168000 16.242897 -1.435500
				CHANNELS 3 Xrotation Yrotation Zrotation
				JOINT Neck
				{
					OFFSET 0.217200 18.631500 -1.679100
					CHANNELS 3 Xrotation Yrotation Zrotation
					JOINT Head
					{
						OFFSET 0.000000 6.599396 1.385900
						CHANNELS 3 Xrotation Yrotation Zrotation
						JOINT Hat
						{
							OFFSET -0.532200 27.220596 -10.096100
							CHANNELS 3 Xrotation Yrotation Zrotation
							End Site
							{
								OFFSET 0.000000 22.029861 0.000000
							}
						}
						JOINT HairD
						{
							OFFSET -10.777400 17.437393 -1.325900
							CHANNELS 3 Xrotation Yrotation Zrotation
							JOINT HairD1
							{
								OFFSET -3.290299 -11.051193 1.062200
								CHANNELS 3 Xrotation Yrotation Zrotation
								End Site
								{
									OFFSET 0.000000 11.579437 0.000000
								}
							}
						}
						JOINT HairB
						{
							OFFSET -10.777400 17.437393 1.467900
							CHANNELS 3 Xrotation Yrotation Zrotation
							JOINT HairB1
							{
								OFFSET -1.561200 -12.956299 3.590200
								CHANNELS 3 Xrotation Yrotation Zrotation
								End Site
								{
									OFFSET 0.000000 13.534866 0.000000
								}
							}
						}
						JOINT HairA
						{
							OFFSET 9.713100 17.437393 1.467900
							CHANNELS 3 Xrotation Yrotation Zrotation
							JOINT HairA1
							{
								OFFSET 1.561200 -12.956299 3.590200
								CHANNELS 3 Xrotation Yrotation Zrotation
								End Site
								{
									OFFSET 0.000000 13.534866 0.000000
								}
							}
						}
						JOINT HairC
						{
							OFFSET 9.713100 17.437393 -1.325900
							CHANNELS 3 Xrotation Yrotation Zrotation
							JOINT HairC1
							{
								OFFSET 3.290300 -11.051193 1.062200
								CHANNELS 3 Xrotation Yrotation Zrotation
								End Site
								{
									OFFSET 0.000000 11.579437 0.000000
								}
							}
						}
					}
				}
				JOINT LeftShoulder
				{
					OFFSET 5.101800 15.108002 -2.763700
					CHANNELS 3 Xrotation Yrotation Zrotation
					JOINT LeftArm
					{
						OFFSET 9.825497 2.506317 -1.597400
						CHANNELS 3 Xrotation Yrotation Zrotation
						JOINT LeftForeArm
						{
							OFFSET 21.966244 0.000000 0.000000
							CHANNELS 3 Xrotation Yrotation Zrotation
							JOINT LeftHand
							{
								OFFSET 33.879036 0.000000 0.000000
								CHANNELS 3 Xrotation Yrotation Zrotation
								JOINT LeftHandThumb1
								{
									OFFSET 6.715286 -2.359680 3.363841
									CHANNELS 3 Xrotation Yrotation Zrotation
									JOINT LeftHandThumb2
									{
										OFFSET 2.507072 -1.447464 1.447461
										CHANNELS 3 Xrotation Yrotation Zrotation
										JOINT LeftHandThumb3
										{
											OFFSET 2.898338 -1.673355 1.673357
											CHANNELS 3 Xrotation Yrotation Zrotation
											End Site
											{
												OFFSET -0.295959 3.727692 -0.131651
											}
										}
									}
								}
								JOINT LeftHandIndex1
								{
									OFFSET 14.190811 -0.254547 3.840278
									CHANNELS 3 Xrotation Yrotation Zrotation
									JOINT LeftHandIndex2
									{
										OFFSET 3.551727 0.000000 -0.000000
										CHANNELS 3 Xrotation Yrotation Zrotation
										JOINT LeftHandIndex3
										{
											OFFSET 2.894196 0.000000 0.000000
											CHANNELS 3 Xrotation Yrotation Zrotation
											End Site
											{
												OFFSET -1.000603 2.690872 0.366626
											}
										}
									}
								}
								JOINT LeftHandMiddle1
								{
									OFFSET 13.776489 0.000000 0.000000
									CHANNELS 3 Xrotation Yrotation Zrotation
									JOINT LeftHandMiddle2
									{
										OFFSET 3.438232 0.000000 0.000000
										CHANNELS 3 Xrotation Yrotation Zrotation
										JOINT LeftHandMiddle3
										{
											OFFSET 3.691551 0.000000 0.000000
											CHANNELS 3 Xrotation Yrotation Zrotation
											End Site
											{
												OFFSET -1.082298 3.499527 0.457670
											}
										}
									}
								}
								JOINT LeftHandRing1
								{
									OFFSET 13.966164 -0.268127 -3.067488
									CHANNELS 3 Xrotation Yrotation Zrotation
									JOINT LeftHandRing2
									{
										OFFSET 3.162567 0.000000 0.000000
										CHANNELS 3 Xrotation Yrotation Zrotation
										JOINT LeftHandRing3
										{
											OFFSET 3.324348 0.000000 0.000000
											CHANNELS 3 Xrotation Yrotation Zrotation
											End Site
											{
												OFFSET -0.861900 3.184998 0.405154
											}
										}
									}
								}
								JOINT LeftHandPinky1
								{
									OFFSET 13.131393 -0.168503 -5.746925
									CHANNELS 3 Xrotation Yrotation Zrotation
									JOINT LeftHandPinky2
									{
										OFFSET 2.849182 0.000000 0.000000
										CHANNELS 3 Xrotation Yrotation Zrotation
										JOINT LeftHandPinky3
										{
											OFFSET 2.805038 0.000000 0.000000
											CHANNELS 3 Xrotation Yrotation Zrotation
											End Site
											{
												OFFSET -0.882500 2.642609 0.325652
											}
										}
									}
								}
							}
							JOINT Left_Sleeve
							{
								OFFSET 6.592125 -0.646545 0.805568
								CHANNELS 3 Xrotation Yrotation Zrotation
								End Site
								{
									OFFSET -0.000179 20.275787 -0.000000
								}
							}
						}
					}
				}
				JOINT RightShoulder
				{
					OFFSET -5.731700 15.108002 -2.763700
					CHANNELS 3 Xrotation Yrotation Zrotation
					JOINT RightArm
					{
						OFFSET -9.825497 2.506317 -1.597400
						CHANNELS 3 Xrotation Yrotation Zrotation
						JOINT RightForeArm
						{
							OFFSET -21.966242 0.000000 0.000000
							CHANNELS 3 Xrotation Yrotation Zrotation
							JOINT RightHand
							{
								OFFSET -33.879032 0.000000 0.000000
								CHANNELS 3 Xrotation Yrotation Zrotation
								JOINT RightHandThumb1
								{
									OFFSET -6.715286 -2.359680 3.363841
									CHANNELS 3 Xrotation Yrotation Zrotation
									JOINT RightHandThumb2
									{
										OFFSET -2.507072 -1.447464 1.447461
										CHANNELS 3 Xrotation Yrotation Zrotation
										JOINT RightHandThumb3
										{
											OFFSET -2.898338 -1.673355 1.673357
											CHANNELS 3 Xrotation Yrotation Zrotation
											End Site
											{
												OFFSET 0.295959 3.727692 -0.131651
											}
										}
									}
								}
								JOINT RightHandIndex1
								{
									OFFSET -14.190811 -0.254547 3.840278
									CHANNELS 3 Xrotation Yrotation Zrotation
									JOINT RightHandIndex2
									{
										OFFSET -3.551727 0.000000 -0.000000
										CHANNELS 3 Xrotation Yrotation Zrotation
										JOINT RightHandIndex3
										{
											OFFSET -2.894196 0.000000 0.000000
											CHANNELS 3 Xrotation Yrotation Zrotation
											End Site
											{
												OFFSET 1.000603 2.690872 0.366626
											}
										}
									}
								}
								JOINT RightHandMiddle1
								{
									OFFSET -13.776489 0.000000 0.000000
									CHANNELS 3 Xrotation Yrotation Zrotation
									JOINT RightHandMiddle2
									{
										OFFSET -3.438232 0.000000 0.000000
										CHANNELS 3 Xrotation Yrotation Zrotation
										JOINT RightHandMiddle3
										{
											OFFSET -3.691551 0.000000 0.000000
											CHANNELS 3 Xrotation Yrotation Zrotation
											End Site
											{
												OFFSET 1.082298 3.499527 0.457670
											}
										}
									}
								}
								JOINT RightHandRing1
								{
									OFFSET -13.966164 -0.268127 -3.067488
									CHANNELS 3 Xrotation Yrotation Zrotation
									JOINT RightHandRing2
									{
										OFFSET -3.162567 0.000000 0.000000
										CHANNELS 3 Xrotation Yrotation Zrotation
										JOINT RightHandRing3
										{
											OFFSET -3.324348 0.000000 0.000000
											CHANNELS 3 Xrotation Yrotation Zrotation
											End Site
											{
												OFFSET 0.861900 3.184998 0.405154
											}
										}
									}
								}
								JOINT RightHandPinky1
								{
									OFFSET -13.131393 -0.168503 -5.746925
									CHANNELS 3 Xrotation Yrotation Zrotation
									JOINT RightHandPinky2
									{
										OFFSET -2.849182 0.000000 0.000000
										CHANNELS 3 Xrotation Yrotation Zrotation
										JOINT RightHandPinky3
										{
											OFFSET -2.805038 0.000000 0.000000
											CHANNELS 3 Xrotation Yrotation Zrotation
											End Site
											{
												OFFSET 0.882500 2.642609 0.325652
											}
										}
									}
								}
							}
							JOINT Right_Sleeve
							{
								OFFSET -6.592125 -0.646545 0.805568
								CHANNELS 3 Xrotation Yrotation Zrotation
								End Site
								{
									OFFSET 0.000179 20.275787 -0.000000
								}
							}
						}
					}
				}
				JOINT Bind_Right_JacketString
				{
					OFFSET -3.534800 11.969597 7.200700
					CHANNELS 3 Xrotation Yrotation Zrotation
					JOINT Bind_Right_JacketString1
					{
						OFFSET -0.319900 -6.102600 2.794100
						CHANNELS 3 Xrotation Yrotation Zrotation
						End Site
						{
							OFFSET 0.000000 6.719452 0.000000
						}
					}
				}
				JOINT Bind_Left_JacketString
				{
					OFFSET 2.904800 11.969597 7.200700
					CHANNELS 3 Xrotation Yrotation Zrotation
					JOINT Bind_Left_JacketString1
					{
						OFFSET 0.364800 -5.904503 3.186800
						CHANNELS 3 Xrotation Yrotation Zrotation
						End Site
						{
							OFFSET 0.000000 6.719513 0.000000
						}
					}
				}
				JOINT HairE
				{
					OFFSET 5.915200 17.612701 -11.592200
					CHANNELS 3 Xrotation Yrotation Zrotation
					JOINT HairE1
					{
						OFFSET 0.289200 -7.171898 -1.284500
						CHANNELS 3 Xrotation Yrotation Zrotation
						End Site
						{
							OFFSET 0.000000 7.291756 0.000000
						}
					}
				}
				JOINT HairF
				{
					OFFSET -0.864800 17.612701 -11.592200
					CHANNELS 3 Xrotation Yrotation Zrotation
					JOINT HairF1
					{
						OFFSET 0.000000 -14.087097 -2.127501
						CHANNELS 3 Xrotation Yrotation Zrotation
						End Site
						{
							OFFSET 0.000000 14.246841 0.000000
						}
					}
				}
				JOINT HairG
				{
					OFFSET -8.087700 17.612701 -11.592200
					CHANNELS 3 Xrotation Yrotation Zrotation
					JOINT HairG1
					{
						OFFSET -0.293600 -6.081398 -0.910100
						CHANNELS 3 Xrotation Yrotation Zrotation
						End Site
						{
							OFFSET 0.000000 6.156120 0.000000
						}
					}
				}
			}
		}
	}
	JOINT Pouch
	{
		OFFSET 0.000000 4.394501 10.847300
		CHANNELS 3 Xrotation Yrotation Zrotation
		End Site
		{
			OFFSET 0.000000 21.880577 0.000000
		}
	}
	JOINT Bag
	{
		OFFSET -13.229000 4.813004 -0.593300
		CHANNELS 3 Xrotation Yrotation Zrotation
		End Site
		{
			OFFSET 0.000000 21.880577 0.000000
		}
	}
	JOINT OccupyGuyFacialAnim_Joint
	{
		OFFSET 1.000000 -70.206398 -1.655000
		CHANNELS 3 Xrotation Yrotation Zrotation
		End Site
		{
			OFFSET 0.000000 21.880577 0.000000
		}
	}
}
MOTION
Frames: 5
Frame Time: 0.016667
-0.989482 66.542557 0.929186 -6.079186 -42.950794 -4.012100 -0.000000 0.000001 0.000000 -24.712338 6.251063 13.968848 35.029329 -14.597427 -0.214957 -7.797012 0.938386 -7.429413 0.000000 0.000002 0.000000 -0.000000 -0.000004 -0.000001 -2.869674 -14.307120 -14.527836 34.186347 -8.756233 -0.403651 -23.634411 -4.503107 16.719945 0.000000 -0.000002 0.000000 0.000001 0.000000 -0.000001 5.833186 4.561345 -1.234799 11.836544 9.037619 -3.083970 11.836544 9.037618 -3.083970 -4.303055 -1.272946 0.206310 -6.271934 20.437796 -0.377164 -0.000002 0.000000 0.000000 -0.000002 0.000000 0.000000 -0.000002 0.000000 0.000000 -0.000002 0.000000 0.000000 -0.000002 0.000000 0.000000 -0.000002 0.000000 0.000000 -0.000002 0.000000 0.000000 -0.000002 0.000000 0.000000 -0.000002 0.000000 0.000000 1.392469 -0.696067 -7.877841 -14.260099 2.394346 -63.277092 9.865045 -47.524934 5.927908 16.172829 0.915199 18.795424 9.163600 4.814105 -5.499025 -0.335355 0.032554 0.783680 0.000002 0.000001 0.000001 -0.902008 -6.980972 -3.808433 0.033405 0.804249 -16.418976 -0.000001 0.000003 -0.000001 1.947852 9.683086 -14.539799 -0.456424 -1.565446 -21.881013 0.000002 0.000001 -0.000003 2.605864 14.896791 -31.345268 -0.576862 -2.712388 -32.011539 0.000002 0.000002 -0.000001 4.170571 18.495018 -34.987323 -0.706798 -5.788625 -39.372929 0.000001 -0.000001 -0.000004 -0.000001 0.000003 -0.000002 1.410921 9.461491 9.792745 1.220043 -24.270686 60.532914 -6.660706 41.858405 8.043834 6.225257 12.322334 11.673329 -8.895851 -4.903132 -0.383713 7.904835 -19.192466 -2.856859 -0.000001 0.000000 -0.000000 -1.085501 -1.215492 4.525242 0.142126 -1.115548 16.942633 -0.000001 -0.000001 -0.000002 -0.663641 -2.903899 12.731588 -0.660568 1.813469 30.578999 0.000002 0.000001 0.000003 2.423626 -7.404549 21.763252 -0.989707 3.764320 37.431144 0.000001 0.000002 0.000004 3.481029 -10.055078 24.322732 -1.458317 7.872018 41.091951 -0.000001 0.000001 -0.000001 0.000000 0.000001 -0.000001 -0.000001 -0.000003 0.000001 0.000000 0.000000 -0.000000 -0.000001 -0.000003 0.000001 -0.000001 -0.000003 0.000001 -0.000001 -0.000003 0.000001 0.000000 0.000000 -0.000000 -0.000001 -0.000003 0.000001 -0.000001 -0.000003 0.000001 -0.000001 -0.000003 0.000001 0.000000 0.000000 -0.000000 -0.000000 0.000001 0.000000 -0.000000 0.000001 0.000000 -0.000000 0.000001 0.000000 
-0.997633 66.522263 0.929214 -5.896825 -42.933989 -3.853396 0.000000 -0.000001 0.000000 -24.879319 6.185257 13.914899 35.119480 -14.532293 -0.202742 -7.835748 0.943617 -7.460683 0.000000 0.000001 0.000000 0.000002 0.000002 0.000001 -3.151886 -14.240543 -14.518395 34.476459 -9.122448 -0.454295 -23.685814 -4.524197 16.757470 -0.000000 -0.000000 -0.000000 0.000000 -0.000000 -0.000000 5.783861 4.477493 -1.256199 11.734907 8.869607 -3.113897 11.734903 8.869612 -3.113898 -4.165996 -0.932303 0.146253 -6.156642 20.430134 -0.327627 -0.000000 0.000000 0.000000 -0.000000 0.000000 0.000000 -0.000000 0.000000 -0.000000 -0.000000 0.000000 -0.000000 -0.000000 -0.000000 0.000000 -0.000000 0.000000 -0.000000 -0.000000 -0.000000 0.000000 -0.000000 0.000000 0.000000 -0.000000 0.000000 0.000000 1.386626 -0.844143 -7.964507 -14.201900 2.560086 -62.985348 9.704264 -47.394467 5.847736 16.129191 0.756313 18.624111 8.640752 4.433221 -5.561612 -0.408219 0.793597 0.350491 0.000002 -0.000001 -0.000004 -1.041383 -6.906988 -4.872338 0.025678 0.590435 -17.734641 0.000001 0.000002 -0.000003 2.035065 9.279533 -16.022065 -0.473449 -1.804224 -24.052866 0.000001 0.000001 -0.000003 2.690496 14.538160 -32.911915 -0.496778 -2.772641 -33.741285 0.000000 0.000003 0.000001 4.266846 18.108546 -37.030274 -0.686432 -5.727441 -41.165598 -0.000005 -0.000002 0.000001 0.000004 0.000000 -0.000001 1.382085 9.291158 9.911532 1.351728 -24.130083 60.409799 -6.095264 41.947173 7.777849 6.458495 12.305882 11.387805 -8.420296 -4.538846 0.140691 7.828466 -18.508800 -2.441055 -0.000001 -0.000001 0.000002 -1.150898 -0.748961 3.855753 0.139048 -1.114645 16.972378 0.000002 -0.000001 0.000002 -0.656026 -2.941669 12.234587 -0.660081 1.806537 30.514024 0.000000 -0.000000 -0.000001 2.492892 -7.589646 21.296035 -0.992141 3.759903 37.371151 0.000000 -0.000001 0.000001 3.629657 -10.398262 23.891196 -1.459807 7.869059 41.061892 -0.000000 0.000002 0.000003 0.000002 0.000001 -0.000002 0.000002 -0.000001 0.000000 0.000002 -0.000003 0.000000 0.000002 -0.000001 0.000000 0.000002 -0.000001 0.000000 0.000002 -0.000001 0.000000 0.000002 -0.000003 0.000001 0.000002 -0.000001 0.000000 0.000002 -0.000001 0.000000 0.000002 -0.000001 0.000000 0.000002 -0.000003 0.000001 0.000000 -0.000001 0.000000 0.000000 -0.000001 0.000000 0.000000 -0.000001 0.000000 
-0.999171 66.503593 0.930942 -5.659564 -42.860687 -3.649571 -0.000000 0.000000 0.000000 -25.093353 6.104934 13.830956 35.199458 -14.482783 -0.190118 -7.857801 0.949094 -7.484747 -0.000000 -0.000002 -0.000000 -0.000000 0.000002 -0.000000 -3.455099 -14.164755 -14.489852 34.763286 -9.577816 -0.516863 -23.725688 -4.550719 16.811327 -0.000000 -0.000002 0.000000 -0.000001 -0.000001 -0.000002 5.732787 4.391218 -1.279711 11.629819 8.696608 -3.147943 11.629815 8.696628 -3.147947 -4.189977 -0.576356 0.043483 -6.017089 20.421159 -0.295643 0.000001 0.000000 -0.000000 0.000001 0.000000 -0.000000 0.000001 0.000000 -0.000000 0.000001 0.000000 -0.000000 0.000001 0.000000 -0.000000 0.000001 0.000000 -0.000000 0.000001 0.000000 -0.000000 0.000001 0.000000 -0.000000 0.000001 0.000000 -0.000000 1.380122 -0.996764 -8.053123 -14.173310 2.709394 -62.680892 9.587329 -47.246683 5.801131 16.163757 0.571985 18.440123 8.124625 4.043973 -5.653110 -0.446821 1.595472 -0.110207 0.000001 0.000001 -0.000003 -1.182649 -6.814259 -6.019491 0.012810 0.363552 -19.154343 -0.000001 0.000000 0.000002 2.116428 8.859753 -17.622218 -0.502090 -2.058235 -26.396203 0.000003 0.000001 -0.000001 2.764099 14.158135 -34.618250 -0.416504 -2.836972 -35.640050 -0.000000 0.000001 -0.000001 4.332955 17.683397 -39.232528 -0.662767 -5.659980 -43.158760 -0.000003 -0.000001 -0.000001 -0.000003 -0.000001 0.000000 1.353089 9.120820 10.030860 1.496269 -24.000621 60.284930 -5.499469 42.033111 7.478103 6.779201 12.246901 11.024426 -7.858792 -4.169032 0.765196 7.781543 -17.752252 -1.975178 0.000002 -0.000001 0.000002 -1.206881 -0.257593 3.105320 0.136260 -1.127636 16.886258 -0.000000 0.000001 -0.000003 -0.647823 -2.986973 11.671363 -0.658983 1.789976 30.358029 0.000001 0.000000 0.000001 2.561820 -7.792013 20.772967 -0.998015 3.749315 37.227147 -0.000002 -0.000001 -0.000005 3.778056 -10.770705 23.398811 -1.463335 7.861979 40.989659 0.000001 -0.000001 -0.000003 0.000002 -0.000000 0.000001 0.000001 -0.000002 0.000000 0.000001 -0.000000 -0.000000 0.000001 -0.000002 -0.000000 0.000001 -0.000002 -0.000000 0.000001 -0.000002 0.000000 0.000001 -0.000000 0.000000 0.000001 -0.000002 -0.000000 0.000001 -0.000002 -0.000000 0.000001 -0.000002 0.000000 0.000001 -0.000000 0.000000 -0.000000 0.000000 0.000000 -0.000000 0.000000 0.000000 -0.000000 0.000000 0.000000 
-0.994723 66.486168 0.934444 -5.370943 -42.733673 -3.413199 -0.000000 -0.000000 0.000000 -25.348632 6.002119 13.731621 35.261787 -14.484031 -0.176783 -7.857624 0.952878 -7.505714 0.000000 -0.000002 -0.000000 -0.000001 -0.000000 0.000001 -3.773198 -14.080883 -14.432813 35.040144 -10.119600 -0.590249 -23.749937 -4.582064 16.883287 0.000000 0.000000 0.000000 -0.000001 0.000001 -0.000001 5.680899 4.303365 -1.301173 11.522931 8.520906 -3.178273 11.522936 8.520897 -3.178269 -4.372956 -0.187668 -0.099259 -5.842712 20.412136 -0.274203 -0.000000 -0.000000 -0.000000 -0.000000 -0.000000 -0.000000 -0.000000 -0.000000 -0.000000 -0.000000 -0.000000 -0.000000 -0.000000 -0.000000 -0.000000 -0.000000 -0.000000 -0.000000 -0.000000 -0.000000 -0.000000 -0.000000 -0.000000 -0.000000 -0.000000 -0.000000 -0.000000 1.373124 -1.153251 -8.144308 -14.167250 2.845055 -62.375801 9.516536 -47.090357 5.789336 16.272651 0.371198 18.260292 7.615059 3.647158 -5.772870 -0.452409 2.437065 -0.597099 0.000004 0.000002 -0.000001 -1.323887 -6.703275 -7.245807 -0.006521 0.124170 -20.673152 0.000006 0.000004 0.000000 2.188764 8.425094 -19.334478 -0.544326 -2.326892 -28.903100 0.000005 0.000000 -0.000003 2.823277 13.758645 -36.457077 -0.336095 -2.906763 -37.699926 -0.000001 -0.000000 -0.000003 4.364283 17.223799 -41.585344 -0.634324 -5.587162 -45.342829 -0.000003 0.000001 0.000003 -0.000001 0.000002 -0.000003 1.325399 8.962438 10.136575 1.656979 -23.878772 60.164985 -4.869297 42.117699 7.144451 7.188160 12.148863 10.581813 -7.214461 -3.789424 1.485802 7.762099 -16.923532 -1.462376 -0.000000 -0.000001 0.000001 -1.250345 0.258057 2.275949 0.133625 -1.154113 16.687243 0.000000 0.000000 0.000000 -0.639261 -3.039721 11.043638 -0.657393 1.764010 30.113396 0.000001 0.000001 -0.000001 2.629489 -8.011469 20.195437 -1.007284 3.732811 37.001266 0.000002 -0.000001 -0.000000 3.924445 -11.172135 22.846783 -1.468903 7.850880 40.876380 -0.000001 -0.000001 -0.000001 0.000002 -0.000001 0.000003 0.000000 0.000001 -0.000000 0.000000 -0.000000 -0.000000 0.000000 0.000001 0.000000 0.000000 0.000001 0.000000 0.000000 0.000001 -0.000000 0.000000 -0.000000 0.000000 0.000000 0.000001 0.000000 0.000000 0.000001 0.000000 0.000000 0.000001 -0.000000 0.000000 -0.000000 0.000000 -0.000000 -0.000000 0.000000 -0.000000 -0.000000 0.000000 -0.000000 -0.000000 0.000000 
-0.985881 66.468430 0.939044 -5.035891 -42.552417 -3.158327 -0.000000 0.000000 -0.000000 -25.646368 5.866807 13.632497 35.312935 -14.561873 -0.162937 -7.836636 0.955073 -7.530170 0.000000 -0.000002 -0.000000 -0.000002 0.000000 -0.000000 -4.098835 -13.991965 -14.337315 35.303165 -10.744554 -0.674045 -23.757263 -4.618460 16.977579 -0.000000 0.000002 -0.000000 -0.000000 -0.000001 -0.000000 5.630140 4.214321 -1.317024 11.417963 8.343455 -3.198492 11.417958 8.343447 -3.198491 -4.712089 0.239332 -0.274419 -5.628831 20.400713 -0.260409 -0.000000 -0.000000 -0.000000 -0.000000 -0.000000 -0.000000 -0.000000 -0.000000 -0.000000 -0.000000 -0.000000 -0.000000 -0.000000 0.000000 0.000000 -0.000000 -0.000000 -0.000000 -0.000000 0.000000 0.000000 -0.000000 -0.000000 -0.000000 -0.000000 -0.000000 -0.000000 1.365571 -1.313362 -8.238628 -14.177989 2.972073 -62.078196 9.495124 -46.935967 5.816221 16.456975 0.166493 18.100736 7.112298 3.243252 -5.920980 -0.426306 3.318962 -1.108805 0.000004 0.000001 -0.000001 -1.462718 -6.574090 -8.548894 -0.034343 -0.127555 -22.288342 -0.000000 0.000000 0.000002 2.248044 7.976818 -21.155480 -0.602573 -2.610162 -31.569158 0.000006 0.000002 -0.000003 2.863671 13.341454 -38.423864 -0.255391 -2.984415 -39.916425 0.000002 0.000000 -0.000002 4.354552 16.733593 -44.083086 -0.598374 -5.510639 -47.712314 -0.000000 -0.000001 0.000003 0.000001 -0.000000 0.000000 1.299692 8.823662 10.220366 1.828177 -23.749591 60.051665 -4.197132 42.197773 6.777226 7.685478 12.020370 10.059082 -6.488059 -3.394486 2.301360 7.769776 -16.020521 -0.905204 -0.000000 -0.000002 0.000002 -1.276874 0.798066 1.367294 0.131018 -1.194062 16.374842 0.000001 -0.000001 0.000002 -0.630568 -3.100032 10.351170 -0.655432 1.728649 29.779765 -0.000000 -0.000001 -0.000001 2.694745 -8.248323 19.563180 -1.020024 3.710510 36.693207 0.000001 0.000000 -0.000003 4.066419 -11.603242 22.234550 -1.476576 7.835831 40.721909 -0.000000 0.000001 0.000002 -0.000001 0.000000 -0.000002 0.000000 0.000001 -0.000001 0.000001 0.000001 -0.000001 0.000000 0.000001 0.000000 0.000000 0.000001 0.000000 0.000000 0.000001 -0.000001 0.000001 0.000001 -0.000000 0.000000 0.000001 0.000000 0.000000 0.000001 0.000000 0.000000 0.000001 -0.000001 0.000001 0.000001 -0.000000 -0.000000 0.000000 -0.000000 -0.000000 0.000000 -0.000000 -0.000000 0.000000 -0.000000 
